<svg class="gaintime" version="1.1" xmlns="http://www.w3.org/2000/svg" width="399.000000pt" height="125.000000pt" viewBox="0 0 399.000000 125.000000" preserveAspectRatio="xMidYMid meet" fill="#002776">
         <title>Gain Time</title>

        <g transform="translate(0.000000,125.000000) scale(0.100000,-0.100000)" stroke="none">
        <path d="M542 1215 c-107 -24 -207 -80 -292 -165 -87 -87 -119 -141 -154 -264
        -63 -216 -8 -426 153 -586 87 -87 164 -131 277 -160 144 -37 304 -18 437 52
        80 42 203 164 242 240 17 32 32 58 36 58 3 0 15 -31 28 -70 21 -66 40 -86 56
        -60 7 12 -63 230 -73 230 -4 0 -55 -16 -114 -36 -87 -29 -108 -39 -108 -55 0
        -24 12 -24 89 2 34 12 65 18 68 15 10 -9 -19 -64 -70 -133 -52 -70 -160 -152
        -243 -183 -71 -26 -177 -38 -261 -29 -177 19 -336 123 -426 279 -91 159 -96
        365 -12 530 59 116 186 227 310 271 75 26 228 36 308 19 139 -28 286 -135 364
        -263 34 -57 55 -68 61 -33 5 23 -70 136 -121 183 -94 86 -162 122 -292 154
        -92 22 -174 23 -263 4z"></path>
        <path d="M523 883 c-20 -8 -17 -18 49 -135 53 -96 59 -112 46 -122 -8 -6 -92
        -54 -186 -106 -162 -90 -193 -116 -164 -134 11 -7 422 223 422 236 0 13 -117
        223 -138 247 -9 10 -23 17 -29 14z"></path>
        <path d="M1834 666 c-3 -7 -4 -33 -2 -57 2 -36 7 -44 23 -44 17 0 20 8 23 58
        3 52 1 57 -18 57 -11 0 -23 -6 -26 -14z"></path>
        <path d="M2834 666 c-3 -7 -4 -33 -2 -57 2 -36 7 -44 23 -44 17 0 20 8 23 58
        3 52 1 57 -18 57 -11 0 -23 -6 -26 -14z"></path>
        <path d="M2301 640 c-60 -9 -85 -25 -61 -40 9 -6 64 -7 138 -4 l122 7 0 -297
        c0 -286 1 -296 19 -296 11 0 23 6 28 13 4 6 10 138 13 292 l5 280 90 2 c50 1
        103 2 118 2 31 1 48 28 26 42 -17 11 -422 10 -498 -1z"></path>
        <path d="M1539 455 c-64 -35 -120 -170 -121 -293 -1 -92 19 -126 78 -130 50
        -3 92 22 131 81 31 47 43 51 43 12 0 -43 21 -85 46 -91 34 -9 74 3 74 22 0 12
        -6 15 -21 11 -53 -14 -69 29 -66 183 2 118 -11 169 -50 200 -30 23 -77 25
        -114 5z m87 -56 c30 -33 26 -147 -8 -219 -28 -62 -72 -110 -99 -110 -36 0 -52
        44 -46 123 15 177 89 277 153 206z"></path>
        <path d="M2156 439 c-37 -29 -56 -70 -77 -168 l-18 -86 0 110 c-1 135 -6 157
        -35 153 -21 -3 -21 -7 -18 -158 4 -210 11 -254 40 -258 30 -4 46 35 62 148 27
        195 66 279 109 236 11 -12 17 -51 22 -152 5 -74 13 -151 19 -170 13 -39 49
        -68 74 -58 18 7 21 20 5 29 -21 14 -32 64 -39 190 -9 168 -26 205 -94 205 -13
        0 -35 -9 -50 -21z"></path>
        <path d="M3132 444 c-30 -21 -51 -64 -67 -138 l-13 -61 -1 77 c-1 80 -8 95
        -34 75 -13 -10 -14 -34 -9 -184 4 -94 10 -175 14 -178 3 -4 15 -4 26 -1 16 5
        21 25 35 129 27 200 52 269 91 254 28 -11 38 -58 44 -217 l7 -155 25 0 c21 0
        25 5 28 30 14 167 61 339 90 333 23 -4 29 -43 31 -176 1 -121 14 -172 49 -191
        29 -16 75 -14 98 4 18 14 17 15 -16 10 -29 -5 -40 -2 -55 15 -18 19 -21 41
        -25 174 -6 172 -17 206 -68 206 -41 0 -71 -26 -98 -84 -20 -44 -23 -47 -23
        -23 -2 89 -70 143 -129 101z"></path>
        <path d="M3714 441 c-112 -68 -177 -262 -117 -347 59 -83 215 -84 299 -3 64
        62 30 83 -38 24 -48 -40 -111 -54 -159 -35 -35 15 -54 41 -64 87 l-7 33 45 0
        c116 0 217 76 217 163 0 51 -13 73 -51 86 -47 16 -90 13 -125 -8z m94 -27 c48
        -33 13 -131 -60 -167 -26 -13 -47 -16 -73 -11 -31 5 -35 9 -29 28 15 50 69
        138 93 151 34 18 42 18 69 -1z"></path>
        <path d="M1840 425 c-5 -14 -10 -107 -10 -206 0 -171 1 -179 20 -179 10 0 23
        8 28 18 5 9 9 100 8 202 -1 166 -3 185 -19 188 -11 2 -20 -6 -27 -23z"></path>
        <path d="M2840 425 c-5 -14 -10 -107 -10 -206 0 -171 1 -179 20 -179 10 0 23
        8 28 18 5 9 9 100 8 202 -1 166 -3 185 -19 188 -11 2 -20 -6 -27 -23z"></path>
        </g>
        </svg>
